<svg width="32" height="32" viewBox="0 0 32 32" fill="none" xmlns="http://www.w3.org/2000/svg">
  <!-- Dark background tile -->
  <rect width="32" height="32" rx="7" fill="#080808"/>
  <!-- Subtle border -->
  <rect x="0.5" y="0.5" width="31" height="31" rx="6.5" fill="none" stroke="rgba(255,255,255,0.10)" stroke-width="1"/>

  <!--
    Letter "B" as compound path.
    Outer shape (clockwise) + two counter holes (counterclockwise)
    fill-rule="evenodd" punches the holes out.
  -->
  <path
    fill-rule="evenodd"
    clip-rule="evenodd"
    d="
      M 7 6
      L 7 26
      L 18.5 26
      Q 26 26 26 21
      Q 26 17 19.5 16
      Q 23 15.5 23 11
      Q 23 6 16.5 6
      Z

      M 11 9
      L 15.5 9
      Q 19.5 9 19.5 11.5
      Q 19.5 14 15.5 14
      L 11 14
      Z

      M 11 18
      L 17 18
      Q 22 18 22 21
      Q 22 24.5 17 24.5
      L 11 24.5
      Z
    "
    fill="white"
  />
</svg>
